<mxfile host="app.diagrams.net" modified="2023-11-22T13:31:05.515Z" agent="Mozilla/5.0 (Windows NT 10.0; Win64; x64) AppleWebKit/537.36 (KHTML, like Gecko) Chrome/119.0.0.0 Safari/537.36" etag="9kDrQvFULdivirP_MCha" version="22.1.3" type="device">
  <diagram name="Page-1" id="wnwoc2uLeqBxeXLW3HC2">
    <mxGraphModel dx="1050" dy="566" grid="1" gridSize="10" guides="1" tooltips="1" connect="1" arrows="1" fold="1" page="1" pageScale="1" pageWidth="850" pageHeight="1100" math="0" shadow="0">
      <root>
        <mxCell id="0" />
        <mxCell id="1" parent="0" />
        <mxCell id="16r67o52_Fv1yaJJ3OsA-23" style="edgeStyle=orthogonalEdgeStyle;rounded=0;orthogonalLoop=1;jettySize=auto;html=1;entryX=0.5;entryY=0;entryDx=0;entryDy=0;" edge="1" parent="1" target="16r67o52_Fv1yaJJ3OsA-4">
          <mxGeometry relative="1" as="geometry">
            <mxPoint x="420" y="250" as="sourcePoint" />
            <Array as="points">
              <mxPoint x="420" y="260" />
              <mxPoint x="600" y="260" />
            </Array>
          </mxGeometry>
        </mxCell>
        <mxCell id="16r67o52_Fv1yaJJ3OsA-24" style="edgeStyle=orthogonalEdgeStyle;rounded=0;orthogonalLoop=1;jettySize=auto;html=1;entryX=0.5;entryY=0;entryDx=0;entryDy=0;" edge="1" parent="1" target="16r67o52_Fv1yaJJ3OsA-2">
          <mxGeometry relative="1" as="geometry">
            <mxPoint x="420" y="250" as="sourcePoint" />
          </mxGeometry>
        </mxCell>
        <mxCell id="16r67o52_Fv1yaJJ3OsA-25" style="edgeStyle=orthogonalEdgeStyle;rounded=0;orthogonalLoop=1;jettySize=auto;html=1;entryX=0.5;entryY=0;entryDx=0;entryDy=0;" edge="1" parent="1" target="16r67o52_Fv1yaJJ3OsA-3">
          <mxGeometry relative="1" as="geometry">
            <mxPoint x="420" y="250" as="sourcePoint" />
            <Array as="points">
              <mxPoint x="420" y="260" />
              <mxPoint x="250" y="260" />
            </Array>
          </mxGeometry>
        </mxCell>
        <mxCell id="16r67o52_Fv1yaJJ3OsA-8" value="" style="edgeStyle=orthogonalEdgeStyle;rounded=0;orthogonalLoop=1;jettySize=auto;html=1;" edge="1" parent="1" source="16r67o52_Fv1yaJJ3OsA-2" target="16r67o52_Fv1yaJJ3OsA-6">
          <mxGeometry relative="1" as="geometry" />
        </mxCell>
        <mxCell id="16r67o52_Fv1yaJJ3OsA-2" value="Center Distance" style="whiteSpace=wrap;html=1;aspect=fixed;" vertex="1" parent="1">
          <mxGeometry x="380" y="290" width="80" height="80" as="geometry" />
        </mxCell>
        <mxCell id="16r67o52_Fv1yaJJ3OsA-10" value="" style="edgeStyle=orthogonalEdgeStyle;rounded=0;orthogonalLoop=1;jettySize=auto;html=1;" edge="1" parent="1" source="16r67o52_Fv1yaJJ3OsA-3" target="16r67o52_Fv1yaJJ3OsA-5">
          <mxGeometry relative="1" as="geometry" />
        </mxCell>
        <mxCell id="16r67o52_Fv1yaJJ3OsA-3" value="Left Distance" style="whiteSpace=wrap;html=1;aspect=fixed;" vertex="1" parent="1">
          <mxGeometry x="210" y="290" width="80" height="80" as="geometry" />
        </mxCell>
        <mxCell id="16r67o52_Fv1yaJJ3OsA-9" value="" style="edgeStyle=orthogonalEdgeStyle;rounded=0;orthogonalLoop=1;jettySize=auto;html=1;" edge="1" parent="1" source="16r67o52_Fv1yaJJ3OsA-4" target="16r67o52_Fv1yaJJ3OsA-7">
          <mxGeometry relative="1" as="geometry" />
        </mxCell>
        <mxCell id="16r67o52_Fv1yaJJ3OsA-4" value="Right Distance" style="whiteSpace=wrap;html=1;aspect=fixed;" vertex="1" parent="1">
          <mxGeometry x="560" y="290" width="80" height="80" as="geometry" />
        </mxCell>
        <mxCell id="16r67o52_Fv1yaJJ3OsA-35" style="edgeStyle=orthogonalEdgeStyle;rounded=0;orthogonalLoop=1;jettySize=auto;html=1;entryX=0;entryY=0.5;entryDx=0;entryDy=0;" edge="1" parent="1" source="16r67o52_Fv1yaJJ3OsA-5" target="16r67o52_Fv1yaJJ3OsA-2">
          <mxGeometry relative="1" as="geometry" />
        </mxCell>
        <mxCell id="16r67o52_Fv1yaJJ3OsA-5" value="Nilai &amp;lt;=10CM" style="rhombus;whiteSpace=wrap;html=1;" vertex="1" parent="1">
          <mxGeometry x="205" y="420" width="90" height="100" as="geometry" />
        </mxCell>
        <mxCell id="16r67o52_Fv1yaJJ3OsA-45" style="edgeStyle=orthogonalEdgeStyle;rounded=0;orthogonalLoop=1;jettySize=auto;html=1;entryX=0;entryY=0.5;entryDx=0;entryDy=0;" edge="1" parent="1" source="16r67o52_Fv1yaJJ3OsA-6" target="16r67o52_Fv1yaJJ3OsA-60">
          <mxGeometry relative="1" as="geometry">
            <mxPoint x="510" y="590" as="targetPoint" />
            <Array as="points">
              <mxPoint x="490" y="470" />
              <mxPoint x="490" y="600" />
              <mxPoint x="550" y="600" />
            </Array>
          </mxGeometry>
        </mxCell>
        <mxCell id="16r67o52_Fv1yaJJ3OsA-50" value="" style="edgeStyle=orthogonalEdgeStyle;rounded=0;orthogonalLoop=1;jettySize=auto;html=1;" edge="1" parent="1" source="16r67o52_Fv1yaJJ3OsA-6" target="16r67o52_Fv1yaJJ3OsA-49">
          <mxGeometry relative="1" as="geometry" />
        </mxCell>
        <mxCell id="16r67o52_Fv1yaJJ3OsA-51" style="edgeStyle=orthogonalEdgeStyle;rounded=0;orthogonalLoop=1;jettySize=auto;html=1;entryX=0.5;entryY=0;entryDx=0;entryDy=0;" edge="1" parent="1" source="16r67o52_Fv1yaJJ3OsA-6" target="16r67o52_Fv1yaJJ3OsA-48">
          <mxGeometry relative="1" as="geometry">
            <Array as="points">
              <mxPoint x="420" y="540" />
              <mxPoint x="230" y="540" />
            </Array>
          </mxGeometry>
        </mxCell>
        <mxCell id="16r67o52_Fv1yaJJ3OsA-6" value="Nilai &amp;lt;=30CM" style="rhombus;whiteSpace=wrap;html=1;" vertex="1" parent="1">
          <mxGeometry x="375" y="420" width="90" height="100" as="geometry" />
        </mxCell>
        <mxCell id="16r67o52_Fv1yaJJ3OsA-31" value="" style="edgeStyle=orthogonalEdgeStyle;rounded=0;orthogonalLoop=1;jettySize=auto;html=1;" edge="1" parent="1" source="16r67o52_Fv1yaJJ3OsA-7" target="16r67o52_Fv1yaJJ3OsA-56">
          <mxGeometry relative="1" as="geometry">
            <mxPoint x="690" y="470" as="targetPoint" />
          </mxGeometry>
        </mxCell>
        <mxCell id="16r67o52_Fv1yaJJ3OsA-36" style="edgeStyle=orthogonalEdgeStyle;rounded=0;orthogonalLoop=1;jettySize=auto;html=1;entryX=1;entryY=0.5;entryDx=0;entryDy=0;" edge="1" parent="1" source="16r67o52_Fv1yaJJ3OsA-7" target="16r67o52_Fv1yaJJ3OsA-2">
          <mxGeometry relative="1" as="geometry" />
        </mxCell>
        <mxCell id="16r67o52_Fv1yaJJ3OsA-7" value="Nilai &amp;lt;=10CM" style="rhombus;whiteSpace=wrap;html=1;" vertex="1" parent="1">
          <mxGeometry x="555" y="420" width="90" height="100" as="geometry" />
        </mxCell>
        <mxCell id="16r67o52_Fv1yaJJ3OsA-32" value="Ya" style="text;html=1;align=center;verticalAlign=middle;resizable=0;points=[];autosize=1;strokeColor=none;fillColor=none;" vertex="1" parent="1">
          <mxGeometry x="170" y="438" width="40" height="30" as="geometry" />
        </mxCell>
        <mxCell id="16r67o52_Fv1yaJJ3OsA-33" value="Ya" style="text;html=1;align=center;verticalAlign=middle;resizable=0;points=[];autosize=1;strokeColor=none;fillColor=none;" vertex="1" parent="1">
          <mxGeometry x="640" y="438" width="40" height="30" as="geometry" />
        </mxCell>
        <mxCell id="16r67o52_Fv1yaJJ3OsA-37" value="Tidak" style="text;html=1;align=center;verticalAlign=middle;resizable=0;points=[];autosize=1;strokeColor=none;fillColor=none;" vertex="1" parent="1">
          <mxGeometry x="505" y="438" width="50" height="30" as="geometry" />
        </mxCell>
        <mxCell id="16r67o52_Fv1yaJJ3OsA-38" value="Tidak" style="text;html=1;align=center;verticalAlign=middle;resizable=0;points=[];autosize=1;strokeColor=none;fillColor=none;" vertex="1" parent="1">
          <mxGeometry x="290" y="438" width="50" height="30" as="geometry" />
        </mxCell>
        <mxCell id="16r67o52_Fv1yaJJ3OsA-46" value="Tidak" style="text;html=1;align=center;verticalAlign=middle;resizable=0;points=[];autosize=1;strokeColor=none;fillColor=none;" vertex="1" parent="1">
          <mxGeometry x="440" y="480" width="50" height="30" as="geometry" />
        </mxCell>
        <mxCell id="16r67o52_Fv1yaJJ3OsA-61" style="edgeStyle=orthogonalEdgeStyle;rounded=0;orthogonalLoop=1;jettySize=auto;html=1;entryX=0.5;entryY=0;entryDx=0;entryDy=0;" edge="1" parent="1" source="16r67o52_Fv1yaJJ3OsA-48" target="16r67o52_Fv1yaJJ3OsA-53">
          <mxGeometry relative="1" as="geometry" />
        </mxCell>
        <mxCell id="16r67o52_Fv1yaJJ3OsA-48" value="Left Distance" style="whiteSpace=wrap;html=1;aspect=fixed;" vertex="1" parent="1">
          <mxGeometry x="190" y="560" width="80" height="80" as="geometry" />
        </mxCell>
        <mxCell id="16r67o52_Fv1yaJJ3OsA-62" style="edgeStyle=orthogonalEdgeStyle;rounded=0;orthogonalLoop=1;jettySize=auto;html=1;entryX=0.5;entryY=0;entryDx=0;entryDy=0;" edge="1" parent="1" source="16r67o52_Fv1yaJJ3OsA-49" target="16r67o52_Fv1yaJJ3OsA-53">
          <mxGeometry relative="1" as="geometry" />
        </mxCell>
        <mxCell id="16r67o52_Fv1yaJJ3OsA-49" value="Right Distance" style="whiteSpace=wrap;html=1;aspect=fixed;" vertex="1" parent="1">
          <mxGeometry x="330" y="560" width="80" height="80" as="geometry" />
        </mxCell>
        <mxCell id="16r67o52_Fv1yaJJ3OsA-52" value="Ya" style="text;html=1;align=center;verticalAlign=middle;resizable=0;points=[];autosize=1;strokeColor=none;fillColor=none;" vertex="1" parent="1">
          <mxGeometry x="380" y="508" width="40" height="30" as="geometry" />
        </mxCell>
        <mxCell id="16r67o52_Fv1yaJJ3OsA-64" value="" style="edgeStyle=orthogonalEdgeStyle;rounded=0;orthogonalLoop=1;jettySize=auto;html=1;" edge="1" parent="1" source="16r67o52_Fv1yaJJ3OsA-53" target="16r67o52_Fv1yaJJ3OsA-63">
          <mxGeometry relative="1" as="geometry" />
        </mxCell>
        <mxCell id="16r67o52_Fv1yaJJ3OsA-66" value="" style="edgeStyle=orthogonalEdgeStyle;rounded=0;orthogonalLoop=1;jettySize=auto;html=1;" edge="1" parent="1" source="16r67o52_Fv1yaJJ3OsA-53" target="16r67o52_Fv1yaJJ3OsA-65">
          <mxGeometry relative="1" as="geometry" />
        </mxCell>
        <mxCell id="16r67o52_Fv1yaJJ3OsA-79" value="" style="edgeStyle=orthogonalEdgeStyle;rounded=0;orthogonalLoop=1;jettySize=auto;html=1;" edge="1" parent="1" source="16r67o52_Fv1yaJJ3OsA-53" target="16r67o52_Fv1yaJJ3OsA-78">
          <mxGeometry relative="1" as="geometry" />
        </mxCell>
        <mxCell id="16r67o52_Fv1yaJJ3OsA-53" value="IF Left Distance &amp;gt; Right Distance" style="rhombus;whiteSpace=wrap;html=1;" vertex="1" parent="1">
          <mxGeometry x="240" y="690" width="120" height="150" as="geometry" />
        </mxCell>
        <mxCell id="16r67o52_Fv1yaJJ3OsA-75" style="edgeStyle=orthogonalEdgeStyle;rounded=0;orthogonalLoop=1;jettySize=auto;html=1;entryX=1;entryY=0.5;entryDx=0;entryDy=0;" edge="1" parent="1" source="16r67o52_Fv1yaJJ3OsA-56" target="16r67o52_Fv1yaJJ3OsA-70">
          <mxGeometry relative="1" as="geometry">
            <Array as="points">
              <mxPoint x="750" y="220" />
            </Array>
          </mxGeometry>
        </mxCell>
        <mxCell id="16r67o52_Fv1yaJJ3OsA-56" value="Belok Kiri" style="shape=parallelogram;perimeter=parallelogramPerimeter;whiteSpace=wrap;html=1;fixedSize=1;" vertex="1" parent="1">
          <mxGeometry x="690" y="440" width="120" height="60" as="geometry" />
        </mxCell>
        <mxCell id="16r67o52_Fv1yaJJ3OsA-57" value="" style="edgeStyle=orthogonalEdgeStyle;rounded=0;orthogonalLoop=1;jettySize=auto;html=1;" edge="1" parent="1" source="16r67o52_Fv1yaJJ3OsA-5" target="16r67o52_Fv1yaJJ3OsA-55">
          <mxGeometry relative="1" as="geometry">
            <mxPoint x="205" y="470" as="sourcePoint" />
            <mxPoint x="160" y="470" as="targetPoint" />
          </mxGeometry>
        </mxCell>
        <mxCell id="16r67o52_Fv1yaJJ3OsA-71" style="edgeStyle=orthogonalEdgeStyle;rounded=0;orthogonalLoop=1;jettySize=auto;html=1;entryX=0;entryY=0.5;entryDx=0;entryDy=0;" edge="1" parent="1" source="16r67o52_Fv1yaJJ3OsA-55" target="16r67o52_Fv1yaJJ3OsA-70">
          <mxGeometry relative="1" as="geometry">
            <Array as="points">
              <mxPoint x="100" y="220" />
            </Array>
          </mxGeometry>
        </mxCell>
        <mxCell id="16r67o52_Fv1yaJJ3OsA-55" value="Belok Kanan" style="shape=parallelogram;perimeter=parallelogramPerimeter;whiteSpace=wrap;html=1;fixedSize=1;" vertex="1" parent="1">
          <mxGeometry x="40" y="440" width="120" height="60" as="geometry" />
        </mxCell>
        <mxCell id="16r67o52_Fv1yaJJ3OsA-72" style="edgeStyle=orthogonalEdgeStyle;rounded=0;orthogonalLoop=1;jettySize=auto;html=1;entryX=1;entryY=0.5;entryDx=0;entryDy=0;" edge="1" parent="1" source="16r67o52_Fv1yaJJ3OsA-60" target="16r67o52_Fv1yaJJ3OsA-70">
          <mxGeometry relative="1" as="geometry">
            <Array as="points">
              <mxPoint x="830" y="590" />
              <mxPoint x="830" y="220" />
            </Array>
          </mxGeometry>
        </mxCell>
        <mxCell id="16r67o52_Fv1yaJJ3OsA-60" value="Maju" style="shape=parallelogram;perimeter=parallelogramPerimeter;whiteSpace=wrap;html=1;fixedSize=1;" vertex="1" parent="1">
          <mxGeometry x="540" y="560" width="120" height="60" as="geometry" />
        </mxCell>
        <mxCell id="16r67o52_Fv1yaJJ3OsA-69" style="edgeStyle=orthogonalEdgeStyle;rounded=0;orthogonalLoop=1;jettySize=auto;html=1;entryX=0;entryY=0.5;entryDx=0;entryDy=0;" edge="1" parent="1" source="16r67o52_Fv1yaJJ3OsA-63">
          <mxGeometry relative="1" as="geometry">
            <mxPoint x="360" y="220" as="targetPoint" />
            <Array as="points">
              <mxPoint x="20" y="765" />
              <mxPoint x="20" y="220" />
            </Array>
          </mxGeometry>
        </mxCell>
        <mxCell id="16r67o52_Fv1yaJJ3OsA-63" value="Belok Kiri" style="shape=parallelogram;perimeter=parallelogramPerimeter;whiteSpace=wrap;html=1;fixedSize=1;" vertex="1" parent="1">
          <mxGeometry x="40" y="735" width="120" height="60" as="geometry" />
        </mxCell>
        <mxCell id="16r67o52_Fv1yaJJ3OsA-74" style="edgeStyle=orthogonalEdgeStyle;rounded=0;orthogonalLoop=1;jettySize=auto;html=1;entryX=1;entryY=0.5;entryDx=0;entryDy=0;" edge="1" parent="1" source="16r67o52_Fv1yaJJ3OsA-65" target="16r67o52_Fv1yaJJ3OsA-70">
          <mxGeometry relative="1" as="geometry">
            <Array as="points">
              <mxPoint x="830" y="765" />
              <mxPoint x="830" y="220" />
            </Array>
          </mxGeometry>
        </mxCell>
        <mxCell id="16r67o52_Fv1yaJJ3OsA-65" value="Belok Kanan" style="shape=parallelogram;perimeter=parallelogramPerimeter;whiteSpace=wrap;html=1;fixedSize=1;" vertex="1" parent="1">
          <mxGeometry x="435" y="735" width="120" height="60" as="geometry" />
        </mxCell>
        <mxCell id="16r67o52_Fv1yaJJ3OsA-67" value="Ya" style="text;html=1;align=center;verticalAlign=middle;resizable=0;points=[];autosize=1;strokeColor=none;fillColor=none;" vertex="1" parent="1">
          <mxGeometry x="180" y="728" width="40" height="30" as="geometry" />
        </mxCell>
        <mxCell id="16r67o52_Fv1yaJJ3OsA-68" value="Tidak" style="text;html=1;align=center;verticalAlign=middle;resizable=0;points=[];autosize=1;strokeColor=none;fillColor=none;" vertex="1" parent="1">
          <mxGeometry x="365" y="728" width="50" height="30" as="geometry" />
        </mxCell>
        <mxCell id="16r67o52_Fv1yaJJ3OsA-70" value="Baca Sensor" style="rounded=0;whiteSpace=wrap;html=1;" vertex="1" parent="1">
          <mxGeometry x="360" y="190" width="120" height="60" as="geometry" />
        </mxCell>
        <mxCell id="16r67o52_Fv1yaJJ3OsA-77" value="" style="edgeStyle=orthogonalEdgeStyle;rounded=0;orthogonalLoop=1;jettySize=auto;html=1;" edge="1" parent="1" source="16r67o52_Fv1yaJJ3OsA-76" target="16r67o52_Fv1yaJJ3OsA-70">
          <mxGeometry relative="1" as="geometry" />
        </mxCell>
        <mxCell id="16r67o52_Fv1yaJJ3OsA-76" value="START" style="rounded=1;whiteSpace=wrap;html=1;" vertex="1" parent="1">
          <mxGeometry x="360" y="80" width="120" height="60" as="geometry" />
        </mxCell>
        <mxCell id="16r67o52_Fv1yaJJ3OsA-78" value="END" style="rounded=1;whiteSpace=wrap;html=1;" vertex="1" parent="1">
          <mxGeometry x="240" y="900" width="120" height="60" as="geometry" />
        </mxCell>
      </root>
    </mxGraphModel>
  </diagram>
</mxfile>
